<svg xmlns="http://www.w3.org/2000/svg" width="223" height="29" fill="none"><path fill="#000" d="M.637 28.703V12.62q0-2.355 3.287-3.621 1.775-.685 4.008-.685t4.008.685q3.286 1.265 3.287 3.621v14.502l-3.34 1.582h-.176V13.234q0-.879-1.107-1.318-1.09-.44-2.672-.44t-2.69.44q-1.09.44-1.09 1.318v13.887l-3.34 1.582zm33.222-1.582-3.34 1.582h-.175v-.95a10.7 10.7 0 0 1-3.604.599q-2.056 0-3.832-.686-3.287-1.3-3.287-3.621v-4.746q0-2.355 3.287-3.621 1.776-.686 3.832-.686 1.934 0 3.604.598v-2.356q0-.879-1.108-1.318-1.09-.44-2.672-.44h-4.271v-.175l1.406-2.988h2.865q2.234 0 4.008.685 3.288 1.265 3.287 3.621zM23.137 23.43q0 .879 1.09 1.318 1.107.44 2.513.44 1.407 0 2.496-.44 1.108-.44 1.108-1.318v-3.516q0-.879-1.108-1.318-1.089-.44-2.496-.44-1.406 0-2.513.44-1.09.44-1.09 1.318zm18.316 5.273v-16.84h-4.518v-.175l1.424-3.024h3.094V2.336l3.34-1.582h.176v7.91h4.517v.176l-1.423 3.023h-3.094v15.258l-3.34 1.582zm11.11-19.16 3.34-1.582h.175V23.43q0 .879 1.09 1.318 1.107.44 2.69.44 1.581 0 2.671-.44 1.108-.44 1.108-1.318V9.543l3.34-1.582h.175v16.084q0 2.355-3.287 3.621-1.775.686-4.008.686t-4.007-.686q-3.288-1.265-3.288-3.621zm19.863 19.16V12.62q0-2.355 3.287-3.621 1.776-.685 4.008-.685h2.373v.175l-1.406 2.989h-.967q-1.583 0-2.69.439-1.09.44-1.09 1.318v13.887l-3.34 1.582zm26.015-1.582-3.34 1.582h-.175v-.95a10.7 10.7 0 0 1-3.604.599q-2.055 0-3.832-.686-3.287-1.3-3.287-3.621v-4.746q0-2.355 3.287-3.621 1.776-.686 3.832-.686 1.934 0 3.604.598v-2.356q0-.879-1.108-1.318-1.09-.44-2.671-.44h-4.272v-.175l1.406-2.988h2.865q2.234 0 4.008.685 3.287 1.265 3.287 3.621zM87.72 23.43q0 .879 1.09 1.318 1.107.44 2.513.44 1.407 0 2.496-.44 1.108-.44 1.108-1.318v-3.516q0-.879-1.108-1.318-1.089-.44-2.496-.44-1.406 0-2.513.44-1.09.44-1.09 1.318zm16.875 5.273V2.336l3.34-1.582h.175V27.12l-3.339 1.582zm24.609 0V2.336l3.34-1.582h.176V8.91q1.688-.598 3.779-.598 2.232 0 4.008.686 3.287 1.265 3.287 3.621v14.502l-3.34 1.582h-.176V13.234q0-.879-1.107-1.318-1.09-.44-2.672-.44t-2.689.44q-1.09.44-1.09 1.318v13.887l-3.34 1.582zm23.379-5.273q0 .879 1.09 1.318 1.107.44 2.689.44t2.672-.44q1.108-.44 1.108-1.318V13.234q0-.879-1.108-1.318-1.09-.44-2.672-.44t-2.689.44q-1.09.44-1.09 1.318zm-3.516.615V12.619q0-2.32 3.288-3.621 1.775-.685 4.007-.685 2.233 0 4.008.685 3.287 1.3 3.287 3.621v11.426q0 2.32-3.287 3.621-1.775.686-4.008.686t-4.007-.686q-3.288-1.3-3.288-3.621M168.93 9.543l3.34-1.582h.175V23.43q0 .879 1.09 1.318 1.107.44 2.69.44t2.671-.44q1.108-.44 1.108-1.318V9.543l3.34-1.582h.176v16.084q0 2.355-3.288 3.621-1.775.686-4.007.686-2.233 0-4.008-.686-3.287-1.265-3.287-3.621zm19.336 12.252 3.339-1.582h.176v3.217q0 .879 1.09 1.318 1.107.44 2.69.44 1.634 0 2.689-.44 1.09-.457 1.09-1.318v-2.742q0-.862-1.125-1.319-1.09-.44-2.672-.44a9.3 9.3 0 0 1-3.463-.685q-3.076-1.248-3.076-3.621v-2.004q0-2.25 2.918-3.515 1.81-.791 3.639-.791 1.74 0 3.005.527 3.041 1.3 3.041 3.78l-3.339 1.581h-.176v-.967q0-1.02-.721-1.388-.72-.37-1.81-.37-1.512 0-2.286.44-.755.44-.755 1.318v.774q0 .879.72 1.318.721.44 2.303.44 2.232 0 4.008.685 3.304 1.266 3.304 3.621v3.973q0 2.337-3.287 3.621-1.775.686-4.007.686-2.233 0-4.008-.686-3.287-1.3-3.287-3.621zm33.925-1.582v3.832q0 2.32-3.287 3.621-1.774.686-4.008.686-2.232 0-4.007-.686-3.287-1.3-3.287-3.621V12.619q0-2.32 3.287-3.621 1.775-.685 4.007-.685 2.233 0 4.008.685 3.287 1.3 3.287 3.621v2.25l-11.074 8.56q0 .88 1.09 1.319 1.108.44 2.689.44 1.583 0 2.672-.44 1.108-.44 1.108-1.318v-1.635l3.34-1.582zm-11.074-.492 7.559-6.082v-.405q0-.879-1.108-1.318-1.09-.44-2.672-.44-1.581 0-2.689.44-1.09.44-1.09 1.318z"/></svg>